This seems to be missing the first few seconds, but this is where it started at the end of the commmercial.																																	Enjoy and please share.																														TTLTTLTTLTTLTTLTTLTTLTTLTTLTTLTTLTTLTTLTTLTTLTTLTTLTTLTTLTTLTTLTTLTTLTTLTTLTTLTTL																										Soundgarden_Live_From_Lollaplooza_2010_Chicago_2011_480p.HDTV.x264_TTL.mkv
Format                           : Matroska
File size                        : 846 MiB
Duration                         : 49mn 5s
Overall bit rate                 : 2 409 Kbps
Encoded date                     : UTC 2011-09-19 05:10:35
Writing application              : mkvmerge v2.4.0 ('Fumbling Towards Ecstasy') built on Oct 11 2008 20:13:15
Writing library                  : libebml v0.7.7 + libmatroska v0.8.1

Video
ID                               : 1
Format                           : AVC
Format/Info                      : Advanced Video Codec
Format profile                   : Baseline@L3.0
Format settings, CABAC           : No
Format settings, ReFrames        : 2 frames
Muxing mode                      : Container profile=Unknown@3.0
Codec ID                         : V_MPEG4/ISO/AVC
Duration                         : 49mn 2s
Bit rate                         : 1 977 Kbps
Width                            : 624 pixels
Height                           : 352 pixels
Display aspect ratio             : 16:9
Frame rate mode                  : Variable
Frame rate                       : 29.970 fps
Resolution                       : 8 bits
Colorimetry                      : 4:2:0
Scan type                        : Progressive
Bits/(Pixel*Frame)               : 0.300
Stream size                      : 694 MiB (82%)
Language                         : English
Color primaries                  : BT.601-6 525, BT.1358 525, BT.1700 NTSC, SMPTE 170M
Transfer characteristics         : BT.709-5, BT.1361
Matrix coefficients              : BT.601-6 525, BT.1358 525, BT.1700 NTSC, SMPTE 170M

Audio
ID                               : 2
Format                           : AC-3
Format/Info                      : Audio Coding 3
Codec ID                         : A_AC3
Duration                         : 49mn 5s
Bit rate mode                    : Constant
Bit rate                         : 384 Kbps
Channel(s)                       : 2 channels
Channel positions                : L R
Sampling rate                    : 48.0 KHz
Video delay                      : 4ms
Stream size                      : 135 MiB (16%)

Menu
00:00:00.000                     : :Chapter 1
00:04:00.000                     : :Chapter 2
00:08:00.000                     : :Chapter 3
00:12:00.000                     : :Chapter 4
00:16:00.000                     : :Chapter 5
00:20:00.000                     : :Chapter 6
00:24:00.000                     : :Chapter 7
00:28:00.000                     : :Chapter 8
00:32:00.000                     : :Chapter 9
00:36:00.000                     : :Chapter 10
00:40:00.000                     : :Chapter 11
00:44:00.000                     : :Chapter 12
00:48:00.000                     : :Chapter 13

